<svg width="60" height="25" viewBox="0 0 60 25" fill="none" xmlns="http://www.w3.org/2000/svg">
<rect width="60" height="25" rx="12.5" fill="url(#paint0_linear_1_147)"/>
<path d="M19.7468 11.6364C19.7468 12.5682 19.5763 13.3693 19.2354 14.0398C18.8945 14.7074 18.4272 15.2216 17.8335 15.5824C17.2425 15.9403 16.5707 16.1193 15.8178 16.1193C15.0621 16.1193 14.3874 15.9403 13.7937 15.5824C13.2028 15.2216 12.7369 14.706 12.396 14.0355C12.055 13.3651 11.8846 12.5653 11.8846 11.6364C11.8846 10.7045 12.055 9.90483 12.396 9.23722C12.7369 8.56676 13.2028 8.05256 13.7937 7.6946C14.3874 7.33381 15.0621 7.15341 15.8178 7.15341C16.5707 7.15341 17.2425 7.33381 17.8335 7.6946C18.4272 8.05256 18.8945 8.56676 19.2354 9.23722C19.5763 9.90483 19.7468 10.7045 19.7468 11.6364ZM18.4428 11.6364C18.4428 10.9261 18.3278 10.3281 18.0977 9.84233C17.8704 9.35369 17.5579 8.98438 17.1602 8.73438C16.7653 8.48153 16.3178 8.35511 15.8178 8.35511C15.315 8.35511 14.8661 8.48153 14.4712 8.73438C14.0763 8.98438 13.7638 9.35369 13.5337 9.84233C13.3065 10.3281 13.1928 10.9261 13.1928 11.6364C13.1928 12.3466 13.3065 12.946 13.5337 13.4347C13.7638 13.9205 14.0763 14.2898 14.4712 14.5426C14.8661 14.7926 15.315 14.9176 15.8178 14.9176C16.3178 14.9176 16.7653 14.7926 17.1602 14.5426C17.5579 14.2898 17.8704 13.9205 18.0977 13.4347C18.3278 12.946 18.4428 12.3466 18.4428 11.6364ZM22.5604 12.1136V16H21.2862V9.45455H22.5092V10.5199H22.5902C22.7408 10.1733 22.9766 9.89489 23.2976 9.68466C23.6214 9.47443 24.0291 9.36932 24.5206 9.36932C24.9666 9.36932 25.3572 9.46307 25.6925 9.65057C26.0277 9.83523 26.2876 10.1108 26.4723 10.4773C26.657 10.8437 26.7493 11.2969 26.7493 11.8366V16H25.4751V11.9901C25.4751 11.5156 25.3516 11.1449 25.1044 10.8778C24.8572 10.608 24.5178 10.473 24.0859 10.473C23.7905 10.473 23.5277 10.5369 23.2976 10.6648C23.0703 10.7926 22.8899 10.9801 22.7564 11.2273C22.6257 11.4716 22.5604 11.767 22.5604 12.1136ZM29.7322 7.27273V16H28.4581V7.27273H29.7322ZM31.4464 16V9.45455H32.7205V16H31.4464ZM32.0898 8.4446C31.8683 8.4446 31.6779 8.37074 31.5188 8.22301C31.3626 8.07244 31.2844 7.89347 31.2844 7.68608C31.2844 7.47585 31.3626 7.29687 31.5188 7.14915C31.6779 6.99858 31.8683 6.9233 32.0898 6.9233C32.3114 6.9233 32.5004 6.99858 32.6566 7.14915C32.8157 7.29687 32.8952 7.47585 32.8952 7.68608C32.8952 7.89347 32.8157 8.07244 32.6566 8.22301C32.5004 8.37074 32.3114 8.4446 32.0898 8.4446ZM35.7088 12.1136V16H34.4347V9.45455H35.6577V10.5199H35.7386C35.8892 10.1733 36.125 9.89489 36.446 9.68466C36.7699 9.47443 37.1776 9.36932 37.669 9.36932C38.1151 9.36932 38.5057 9.46307 38.8409 9.65057C39.1761 9.83523 39.4361 10.1108 39.6207 10.4773C39.8054 10.8437 39.8977 11.2969 39.8977 11.8366V16H38.6236V11.9901C38.6236 11.5156 38.5 11.1449 38.2528 10.8778C38.0057 10.608 37.6662 10.473 37.2344 10.473C36.9389 10.473 36.6761 10.5369 36.446 10.6648C36.2188 10.7926 36.0384 10.9801 35.9048 11.2273C35.7741 11.4716 35.7088 11.767 35.7088 12.1136ZM44.4276 16.1321C43.7827 16.1321 43.2273 15.9943 42.7614 15.7188C42.2983 15.4403 41.9403 15.0497 41.6875 14.5469C41.4375 14.0412 41.3125 13.4489 41.3125 12.7699C41.3125 12.0994 41.4375 11.5085 41.6875 10.9972C41.9403 10.4858 42.2926 10.0866 42.7443 9.79972C43.1989 9.51278 43.7301 9.36932 44.3381 9.36932C44.7074 9.36932 45.0653 9.4304 45.4119 9.55256C45.7585 9.67472 46.0696 9.86648 46.3452 10.1278C46.6207 10.3892 46.8381 10.7287 46.9972 11.1463C47.1563 11.5611 47.2358 12.0653 47.2358 12.6591V13.1108H42.0327V12.1562H45.9872C45.9872 11.821 45.919 11.5241 45.7827 11.2656C45.6463 11.0043 45.4545 10.7983 45.2074 10.6477C44.9631 10.4972 44.6761 10.4219 44.3466 10.4219C43.9886 10.4219 43.6761 10.5099 43.4091 10.6861C43.1449 10.8594 42.9403 11.0866 42.7955 11.3679C42.6534 11.6463 42.5824 11.9489 42.5824 12.2756V13.0213C42.5824 13.4588 42.6591 13.831 42.8125 14.1378C42.9688 14.4446 43.1861 14.679 43.4645 14.8409C43.7429 15 44.0682 15.0795 44.4403 15.0795C44.6818 15.0795 44.902 15.0455 45.1009 14.9773C45.2997 14.9062 45.4716 14.8011 45.6165 14.6619C45.7614 14.5227 45.8722 14.3509 45.9489 14.1463L47.1548 14.3636C47.0582 14.7187 46.8849 15.0298 46.6349 15.2969C46.3878 15.5611 46.0767 15.767 45.7017 15.9148C45.3295 16.0597 44.9048 16.1321 44.4276 16.1321Z" fill="white"/>
<defs>
<linearGradient id="paint0_linear_1_147" x1="30" y1="0" x2="30" y2="25" gradientUnits="userSpaceOnUse">
<stop stop-color="#2DAD59"/>
<stop offset="1" stop-color="#124725"/>
</linearGradient>
</defs>
</svg>
