<svg width="128" height="128" viewBox="0 0 128 128" fill="none" xmlns="http://www.w3.org/2000/svg">
<path d="M63.5 80.2578C62.875 80.2578 62.2891 80.1602 61.7422 79.9648C61.1953 79.7695 60.6875 79.4375 60.2188 78.9688L43.3438 62.0938C42.4062 61.1562 41.957 60.0625 41.9961 58.8125C42.0352 57.5625 42.4844 56.4688 43.3438 55.5312C44.2812 54.5938 45.3945 54.1055 46.6836 54.0664C47.9727 54.0273 49.0859 54.4766 50.0234 55.4141L58.8125 64.2031V30.6875C58.8125 29.3594 59.2617 28.2461 60.1602 27.3477C61.0586 26.4492 62.1719 26 63.5 26C64.8281 26 65.9414 26.4492 66.8398 27.3477C67.7383 28.2461 68.1875 29.3594 68.1875 30.6875V64.2031L76.9766 55.4141C77.9141 54.4766 79.0273 54.0273 80.3164 54.0664C81.6055 54.1055 82.7188 54.5938 83.6562 55.5312C84.5156 56.4688 84.9648 57.5625 85.0039 58.8125C85.043 60.0625 84.5938 61.1562 83.6562 62.0938L66.7812 78.9688C66.3125 79.4375 65.8047 79.7695 65.2578 79.9648C64.7109 80.1602 64.125 80.2578 63.5 80.2578ZM35.375 101C32.7969 101 30.5898 100.082 28.7539 98.2461C26.918 96.4102 26 94.2031 26 91.625V82.25C26 80.9219 26.4492 79.8086 27.3477 78.9102C28.2461 78.0117 29.3594 77.5625 30.6875 77.5625C32.0156 77.5625 33.1289 78.0117 34.0273 78.9102C34.9258 79.8086 35.375 80.9219 35.375 82.25V91.625H91.625V82.25C91.625 80.9219 92.0742 79.8086 92.9727 78.9102C93.8711 78.0117 94.9844 77.5625 96.3125 77.5625C97.6406 77.5625 98.7539 78.0117 99.6523 78.9102C100.551 79.8086 101 80.9219 101 82.25V91.625C101 94.2031 100.082 96.4102 98.2461 98.2461C96.4102 100.082 94.2031 101 91.625 101H35.375Z" fill="#999999"/>
</svg>
