<svg width="24" height="24" viewBox="0 0 24 24" fill="none" xmlns="http://www.w3.org/2000/svg">
<path d="M11 9.85L10.125 10.725C9.925 10.925 9.6875 11.0208 9.4125 11.0125C9.1375 11.0042 8.9 10.9 8.7 10.7C8.51667 10.5 8.42083 10.2667 8.4125 10C8.40417 9.73333 8.5 9.5 8.7 9.3L11.3 6.7C11.4 6.6 11.5083 6.52917 11.625 6.4875C11.7417 6.44583 11.8667 6.425 12 6.425C12.1333 6.425 12.2583 6.44583 12.375 6.4875C12.4917 6.52917 12.6 6.6 12.7 6.7L15.3 9.3C15.5 9.5 15.5958 9.73333 15.5875 10C15.5792 10.2667 15.4833 10.5 15.3 10.7C15.1 10.9 14.8625 11.0042 14.5875 11.0125C14.3125 11.0208 14.075 10.925 13.875 10.725L13 9.85V13C13 13.2833 12.9042 13.5208 12.7125 13.7125C12.5208 13.9042 12.2833 14 12 14C11.7167 14 11.4792 13.9042 11.2875 13.7125C11.0958 13.5208 11 13.2833 11 13V9.85ZM5 21C4.45 21 3.97917 20.8042 3.5875 20.4125C3.19583 20.0208 3 19.55 3 19V5C3 4.45 3.19583 3.97917 3.5875 3.5875C3.97917 3.19583 4.45 3 5 3H19C19.55 3 20.0208 3.19583 20.4125 3.5875C20.8042 3.97917 21 4.45 21 5V19C21 19.55 20.8042 20.0208 20.4125 20.4125C20.0208 20.8042 19.55 21 19 21H5ZM5 19H19V16H16C15.5 16.6333 14.9042 17.125 14.2125 17.475C13.5208 17.825 12.7833 18 12 18C11.2167 18 10.4792 17.825 9.7875 17.475C9.09583 17.125 8.5 16.6333 8 16H5V19ZM12 16C12.5333 16 13.025 15.8625 13.475 15.5875C13.925 15.3125 14.2917 14.95 14.575 14.5C14.675 14.35 14.8 14.2292 14.95 14.1375C15.1 14.0458 15.2667 14 15.45 14H19V5H5V14H8.55C8.73333 14 8.9 14.0458 9.05 14.1375C9.2 14.2292 9.325 14.35 9.425 14.5C9.70833 14.95 10.075 15.3125 10.525 15.5875C10.975 15.8625 11.4667 16 12 16Z" fill="#2B9BED"/>
</svg>
