<svg width="25" height="19" viewBox="0 0 25 19" fill="none" xmlns="http://www.w3.org/2000/svg">
<path d="M1.25096 18.7166H23.751C23.9788 18.7158 24.2021 18.653 24.3968 18.5348C24.5916 18.4167 24.7504 18.2476 24.8562 18.0459C24.962 17.8441 25.0108 17.6174 24.9973 17.39C24.9839 17.1626 24.9086 16.9431 24.7797 16.7553L13.5297 0.505312C13.0635 -0.168438 11.941 -0.168438 11.4735 0.505312L0.223461 16.7553C0.0932424 16.9427 0.016879 17.1623 0.0026678 17.3901C-0.0115434 17.6178 0.0369412 17.8452 0.142854 18.0473C0.248766 18.2495 0.408056 18.4188 0.603416 18.5367C0.798777 18.6547 1.02274 18.7169 1.25096 18.7166Z" fill="white"/>
</svg>
